<svg xmlns="http://www.w3.org/2000/svg" xmlns:xlink="http://www.w3.org/1999/xlink" version="1.0" x="0px" y="0px" viewBox="0 0 100 100"  style="fill:#FFFFFF;" enable-background="new 0 0 100 100" xml:space="preserve"><path d="M10,10l6.667,73.334L50,90l33.333-6.666L90,10H10z M77.146,77.773L50,83.199l-27.146-5.426l-5.557-61.107h65.4  L77.146,77.773z"/><polygon points="27.327,53.334 65.977,53.334 64.766,66.654 50,69.604 35.231,66.654 34.629,60 27.933,60 29.043,72.213 50,76.4   70.957,72.213 73.278,46.666 41.745,46.666 74.792,30 75.397,23.333 24.6,23.333 25.205,30 59.987,30 26.94,46.666 "/><text x="0" y="115" fill="#FFFFFF" font-size="5px" font-weight="bold" font-family="'Helvetica Neue', Helvetica, Arial-Unicode, Arial, Sans-serif"></text><text x="0" y="120" fill="#FFFFFF" font-size="5px" font-weight="bold" font-family="'Helvetica Neue', Helvetica, Arial-Unicode, Arial, Sans-serif"></text></svg>